PathFileType	4	(X/Y/Z)	9_coords_data.trc
DataRate	CameraRate	NumFrames	NumMarkers	Units	OrigDataRate	OrigDataStartFrame	OrigNumFrames
30.0	30.0	6	21	m	30.0	32	52
Frame#	Time	THUMB_TIP	THUMB_IP	THUMB_MCP	THUMB_CMC	INDEX_TIP	INDEX_DIP	INDEX_PIP	INDEX_MCP	MIDDLE_TIP	MIDDLE_DIP	MIDDLE_PIP	MIDDLE_MCP	RING_TIP	RING_DIP	RING_PIP	RING_MCP	PINKY_TIP	PINKY_DIP	PINKY_PIP	PINKY_MCP	WRIST
X1	Y1	Z1	X2	Y2	Z2	X3	Y3	Z3	X4	Y4	Z4	X5	Y5	Z5	X6	Y6	Z6	X7	Y7	Z7	X8	Y8	Z8	X9	Y9	Z9	X10	Y10	Z10	X11	Y11	Z11	X12	Y12	Z12	X13	Y13	Z13	X14	Y14	Z14	X15	Y15	Z15	X16	Y16	Z16	X17	Y17	Z17	X18	Y18	Z18	X19	Y19	Z19	X20	Y20	Z20	X21	Y21	Z21
30	1.0333333333333288	0.5329055219931984	-0.051430252341612914	-0.14889446198233486	0.5185620253985569	-0.047380269391628316	-0.13140555854202907	0.4955065583180115	-0.04346157103076631	-0.11086512911968077	0.4831545740807889	-0.03137801427862896	-0.06973963651933279	0.5838413273814286	-0.009018815229674626	-0.1536040565304651	0.5672652779926503	-0.003081071083498532	-0.1493640351725785	0.5443364887788424	0.0043342613219468085	-0.14220210083152773	0.5089486348814999	-0.0019128185489115657	-0.11934800090115522	0.5996858386476096	-0.0002504784631457424	-0.133840570046232	0.583173985702686	0.00570628794371042	-0.12938235893645245	0.5570466638739281	0.01569582429690386	-0.12119811996726626	0.5169397059583417	0.010872557999390131	-0.10211105759557942	0.5999220356311327	-0.0025235243402566	-0.10689955516337452	0.5850935102842054	0.006359153211742963	-0.10177970403831799	0.5637618199397532	0.017789096366115364	-0.09590642850108855	0.5256629168336042	0.015150807803480326	-0.08263111872810924	0.5939501720979944	-0.0016337563874094796	-0.0738586896240836	0.5814453192886443	0.008338750864183453	-0.06776133320236966	0.5630329000597549	0.01686610901412744	-0.062368838406618	0.5276877178450491	0.010645745882887359	-0.05877598052955668	0.4622830810018608	-0.023011742144276925	-0.051989820119430985
31	1.0666666666666622	0.5391279069062263	-0.05254214036979399	-0.14333671796799385	0.5230159286437245	-0.048399126801901615	-0.1274861787013024	0.4983493522551242	-0.04438307560523824	-0.10893216721992371	0.4839799748611484	-0.03117670338302081	-0.06881979099963809	0.5845815321716983	-0.011014677827785091	-0.15040286972788836	0.5680670542758908	-0.004324892592567409	-0.14715960080047147	0.5450823953177185	0.0039024224477287595	-0.14115738680859913	0.5089968643819459	-0.0016851423312255198	-0.11924278731592314	0.5993678042669257	-0.0013390234300001413	-0.1318977345244129	0.5829845624882667	0.0053080358181579745	-0.127972687751	0.5569551078023629	0.016137004456392767	-0.12058279756327689	0.5165763079535807	0.011607487403140881	-0.10200367166789942	0.5990714705315907	-0.003019267666313996	-0.10509511692528362	0.5844604038274627	0.006488557728260402	-0.10049968592984837	0.5633245577995998	0.01856197178216057	-0.09523768395630572	0.5250458520936487	0.016326803002196688	-0.08241327192291137	0.5925255754756102	-0.002064423163751661	-0.07324008405443716	0.5805224541795375	0.008606620680391752	-0.06731945043732046	0.562403733985763	0.01782888595625365	-0.06207790288708859	0.5269896777652604	0.0120286919731325	-0.058460469712965146	0.4622830810018609	-0.023011742144276925	-0.051989820119430985
32	1.0999999999999952	0.544261735543232	-0.05229152092577838	-0.13845274545534764	0.5267805465156117	-0.04838967593650756	-0.12405887051284831	0.5008570925746871	-0.0447042106263843	-0.10722997033426745	0.48467926985025034	-0.030892600493710343	-0.06802018230321927	0.5852197544147629	-0.011721904252135151	-0.14779047109482035	0.5687435773894451	-0.004625689662346666	-0.14530464545208827	0.545698532230807	0.00401531698357771	-0.1401793424579797	0.5091174863066185	-0.001254708881231914	-0.11902065628712649	0.5992797672206411	-0.0006723481562680433	-0.13024561505165777	0.5829023044188499	0.0062080713196331905	-0.12671878361089067	0.5568096715497628	0.017265978974193796	-0.1199138781551003	0.516278020661266	0.012430893909333052	-0.1017492105372057	0.5986303266344022	-0.0019145553906978474	-0.10354661243833407	0.584025686389273	0.007772108957617596	-0.099318963314598	0.5628644054248083	0.019984340762873698	-0.09449801306825856	0.5244765589300301	0.017490636232702417	-0.08205311398431425	0.5915294020018411	-0.001587806689350768	-0.07229264208652131	0.5797631551109461	0.009446077139467102	-0.06656474179455951	0.5617696159068891	0.0190200973968504	-0.061526616942664925	0.526330366830178	0.01329164352933232	-0.05804410460721654	0.4622830810018609	-0.023011742144276925	-0.051989820119430985
33	1.1333333333333284	0.5482986090923617	-0.050877367786229755	-0.13454832362629504	0.5298037659682662	-0.047489478129189466	-0.12133988005837926	0.5029519927313991	-0.044444358251089944	-0.10589547916472608	0.48523462219865	-0.030552377075901416	-0.06738577077277019	0.5858087995286593	-0.011093755532914695	-0.1458710690844887	0.5693004317988758	-0.003914922163878454	-0.14388659274100246	0.5461458998140643	0.004755835008451781	-0.1393373673538818	0.5092872988837819	-0.0006370277538911839	-0.11869768076011977	0.5994445243646218	0.001716496410345436	-0.12896924404276183	0.5829256189506207	0.008374524940026662	-0.12568345341929932	0.556595037963298	0.019067848220412187	-0.11922103188467226	0.5160496046451185	0.013315795590665536	-0.10135683169026993	0.5986250934037141	0.0006769196057839766	-0.10231171998264893	0.5838177804328554	0.010140614655958502	-0.09828903946086437	0.5623984055366604	0.021993111947830712	-0.09371643998109114	0.5239837282935917	0.01858109576363909	-0.08157594773943644	0.5910079073940282	-0.0002575478577182544	-0.07112477111563675	0.5792040554109831	0.010823069925871898	-0.0655669848750241	0.5611623181851955	0.02041849228147752	-0.06074665224198128	0.5257505752226694	0.014376789971531023	-0.05752333957424627	0.4622830810018609	-0.023011742144276925	-0.051989820119430985
34	1.1666666666666616	0.5513247798018672	-0.04888075722385643	-0.13165800157576218	0.5321113791466887	-0.04613764838428458	-0.11935675817690805	0.5046304691653383	-0.04381771948968971	-0.10492632102064237	0.4856501672173935	-0.03018792290344252	-0.06692807391656697	0.586376040801225	-0.009300344071417554	-0.14461798189671715	0.5697566986619581	-0.002311604262799749	-0.142898975571706	0.5464347160275143	0.006055475015864675	-0.13864610085649898	0.5095030409384248	8.364354644785355e-05	-0.11829850399557174	0.5997322744403737	0.0054494522502314124	-0.128061029834605	0.5829765681671776	0.011530195545029986	-0.12485621029691829	0.556289735734909	0.021384271701792135	-0.11852219831171074	0.5158759864477164	0.014214764599590701	-0.1008735451771674	0.5988876125425445	0.0043607382220889335	-0.10139269352053643	0.5837334939005719	0.013284791855125211	-0.09742861040590406	0.561902465645333	0.024391104387679885	-0.09293016553593131	0.5235662124530046	0.019579578133969155	-0.08101791384770907	0.5908380564073232	0.001654300598133318	-0.06997682424152385	0.5788064943194269	0.01254905025563946	-0.0645412061878553	0.5605954517436351	0.021913890890336796	-0.05990766464931063	0.5252704392142153	0.015258455617391697	-0.05695264821552126	0.462283081001861	-0.023011742144276925	-0.051989820119430985
35	1.1999999999999948	0.5533336519646656	-0.04668108398892035	-0.1297873093343836	0.5336462209930537	-0.04459502025110129	-0.11812311627100464	0.5057759184931785	-0.04299335087099099	-0.10435718391019921	0.48594190702523987	-0.029848161986471222	-0.06662515509806166	0.586817676442889	-0.0067600944607625335	-0.14395268144424012	0.5700440258464838	-0.00013206013093436386	-0.14230531791655632	0.5465329668131279	0.007730695046764269	-0.13813194791790734	0.5097071890874892	0.0008697646212135757	-0.11787297897579169	0.5999424366517497	0.009818637960892218	-0.12743765010253444	0.5829394625212488	0.015148352659584585	-0.12419835821262054	0.5558837766194535	0.02391831254583998	-0.11783540182609181	0.5157266130057867	0.015112404950225922	-0.10034237113033484	0.5991563114723459	0.008472154812863009	-0.10073121906335747	0.5836211757443	0.01669199815680744	-0.0967195195092776	0.5613512828452322	0.026863330278146802	-0.09216146596182284	0.5231858761804944	0.02051804405048152	-0.08042008994347649	0.5907855891074071	0.0038568326544852205	-0.0690380219226625	0.5784584271441289	0.014441723619934899	-0.0636527493036908	0.5600393434774887	0.023453753700123925	-0.05914357091787825	0.5248604866437769	0.01599519302406749	-0.056368439296713424	0.4622830810018608	-0.023011742144276925	-0.051989820119430985
